HIERARCHY
ROOT Hips
{
	OFFSET 0.000000 0.000000 0.000000
	CHANNELS 6 Xposition Yposition Zposition Zrotation Yrotation Xrotation 
	JOINT LHipJoint
	{
		OFFSET 0.000000 0.000000 0.000000
		CHANNELS 3 Zrotation Yrotation Xrotation
		JOINT LeftUpLeg
		{
			OFFSET 1.363060 -1.794630 0.839290
			CHANNELS 3 Zrotation Yrotation Xrotation
			JOINT LeftLeg
			{
				OFFSET 2.448110 -6.726130 0.000000
				CHANNELS 3 Zrotation Yrotation Xrotation
				JOINT LeftFoot
				{
					OFFSET 2.562200 -7.039590 0.000000
					CHANNELS 3 Zrotation Yrotation Xrotation
					JOINT LeftToeBase
					{
						OFFSET 0.157640 -0.433110 2.322550
						CHANNELS 3 Zrotation Yrotation Xrotation
						End Site
						{
							OFFSET 0.000000 0.000000 0.000000
						}
					}
				}
			}
		}
	}
	JOINT RHipJoint
	{
		OFFSET 0.000000 0.000000 0.000000
		CHANNELS 3 Zrotation Yrotation Xrotation
		JOINT RightUpLeg
		{
			OFFSET -1.305520 -1.794630 0.839290
			CHANNELS 3 Zrotation Yrotation Xrotation
			JOINT RightLeg
			{
				OFFSET -2.542530 -6.985550 0.000000
				CHANNELS 3 Zrotation Yrotation Xrotation
				JOINT RightFoot
				{
					OFFSET -2.568260 -7.056230 0.000000
					CHANNELS 3 Zrotation Yrotation Xrotation
					JOINT RightToeBase
					{
						OFFSET -0.164730 -0.452590 2.363150
						CHANNELS 3 Zrotation Yrotation Xrotation
						End Site
						{
							OFFSET 0.000000 0.000000 0.000000
						}
					}
				}
			}
		}
	}
	JOINT LowerBack
	{
		OFFSET 0.000000 0.000000 0.000000
		CHANNELS 3 Zrotation Yrotation Xrotation
		JOINT Spine
		{
			OFFSET 0.028270 2.035590 -0.193380
			CHANNELS 3 Zrotation Yrotation Xrotation
			JOINT Spine1
			{
				OFFSET 0.056720 2.048850 -0.042750
				CHANNELS 3 Zrotation Yrotation Xrotation
				JOINT Neck
				{
					OFFSET 0.000000 0.000000 0.000000
					CHANNELS 3 Zrotation Yrotation Xrotation
					JOINT Neck1
					{
						OFFSET -0.054170 1.746240 0.172020
						CHANNELS 3 Zrotation Yrotation Xrotation
						JOINT Head
						{
							OFFSET 0.104070 1.761360 -0.123970
							CHANNELS 3 Zrotation Yrotation Xrotation
							End Site
							{
								OFFSET 0.000000 0.000000 0.000000
							}
						}
					}
				}
				JOINT LeftShoulder
				{
					OFFSET 0.000000 0.000000 0.000000
					CHANNELS 3 Zrotation Yrotation Xrotation
					JOINT LeftArm
					{
						OFFSET 3.362410 1.200890 -0.311210
						CHANNELS 3 Zrotation Yrotation Xrotation
						JOINT LeftForeArm
						{
							OFFSET 4.983000 -0.000000 -0.000000
							CHANNELS 3 Zrotation Yrotation Xrotation
							JOINT LeftHand
							{
								OFFSET 3.483560 -0.000000 -0.000000
								CHANNELS 3 Zrotation Yrotation Xrotation
								JOINT LeftFingerBase
								{
									OFFSET 0.000000 0.000000 0.000000
									CHANNELS 3 Zrotation Yrotation Xrotation
									JOINT LeftHandIndex1
									{
										OFFSET 0.715260 -0.000000 -0.000000
										CHANNELS 3 Zrotation Yrotation Xrotation
										End Site
										{
											OFFSET 0.000000 0.000000 0.000000
										}
									}
								}
								JOINT LThumb
								{
									OFFSET 0.000000 0.000000 0.000000
									CHANNELS 3 Zrotation Yrotation Xrotation
									End Site
									{
										OFFSET 0.000000 0.000000 0.000000
									}
								}
							}
						}
					}
				}
				JOINT RightShoulder
				{
					OFFSET 0.000000 0.000000 0.000000
					CHANNELS 3 Zrotation Yrotation Xrotation
					JOINT RightArm
					{
						OFFSET -3.136600 1.374050 -0.404650
						CHANNELS 3 Zrotation Yrotation Xrotation
						JOINT RightForeArm
						{
							OFFSET -5.241900 -0.000000 -0.000000
							CHANNELS 3 Zrotation Yrotation Xrotation
							JOINT RightHand
							{
								OFFSET -3.444170 -0.000000 -0.000000
								CHANNELS 3 Zrotation Yrotation Xrotation
								JOINT RightFingerBase
								{
									OFFSET 0.000000 0.000000 0.000000
									CHANNELS 3 Zrotation Yrotation Xrotation
									JOINT RightHandIndex1
									{
										OFFSET -0.622530 -0.000000 -0.000000
										CHANNELS 3 Zrotation Yrotation Xrotation
										End Site
										{
											OFFSET 0.000000 0.000000 0.000000
										}
									}
								}
								JOINT RThumb
								{
									OFFSET 0.000000 0.000000 0.000000
									CHANNELS 3 Zrotation Yrotation Xrotation
									End Site
									{
										OFFSET 0.000000 0.000000 0.000000
									}
								}
							}
						}
					}
				}
			}
		}
	}
}
MOTION
Frames: 11
Frame Time: 0.016667
-1.636204 16.799451 23.780032 0.951737 9.085163 8.040854 -18.119270 -0.800488 -9.208679 -6.226669 -2.855126 -12.196017 -15.500480 2.551871 -0.875318 -0.003558 7.958716 11.913442 0.000000 0.000000 0.000000 16.154221 -7.553800 4.614959 5.419021 7.598516 -7.061539 15.329086 -19.509647 38.331452 25.026300 -24.351231 -4.856761 0.000000 0.000000 0.000000 3.698410 4.291873 8.242425 -10.622458 0.982741 -20.095675 3.882589 1.173296 -5.194272 6.223376 -2.779178 -11.115230 -3.020682 -0.612297 9.753271 0.000000 0.000000 0.000000 -12.325392 8.388697 15.541268 -53.319230 5.708342 -8.303147 12.291473 -54.614385 -0.164833 0.281337 2.515952 -0.082471 0.283298 2.517591 -0.000000 0.000000 0.000000 0.000000 0.000000 0.000000 0.000000 10.161855 -3.821841 11.229828 64.112164 13.134070 -9.561709 -12.677880 57.817084 0.051631 0.676083 -0.857497 0.026016 0.680266 -0.856050 0.000000 0.000000 0.000000 0.000000 0.000000 0.000000 0.000000 
-1.647635 16.824092 23.967936 1.330765 8.935647 8.069840 -17.759692 -0.724010 -9.356523 -6.487283 -2.671566 -11.956323 -16.196225 3.174967 0.284390 -0.056436 7.503947 10.488745 0.000000 0.000000 0.000000 16.539257 -7.358362 4.844429 4.919481 7.462723 -7.110749 14.583704 -19.376813 38.723172 26.105305 -26.290050 -3.598289 0.000000 0.000000 0.000000 3.336687 4.185948 8.199760 -10.736663 0.821956 -20.067628 3.917925 0.979270 -5.320503 6.334150 -2.795223 -11.176711 -2.989926 -0.610811 9.863852 0.000000 0.000000 0.000000 -12.407669 8.396303 15.594864 -53.496876 5.719453 -8.482851 12.990314 -54.924697 -0.164967 0.244975 2.523247 -0.082538 0.246913 2.524909 -0.000000 0.000000 0.000000 0.000000 0.000000 0.000000 0.000000 10.108351 -3.978660 11.503337 64.908322 13.371452 -9.900209 -12.887827 57.488923 0.055852 0.726646 -0.844748 0.028126 0.730896 -0.843257 0.000000 0.000000 0.000000 0.000000 0.000000 0.000000 0.000000 
-1.655690 16.850475 24.154126 1.688439 8.794896 8.131653 -17.429321 -0.640516 -9.427762 -6.738900 -2.510878 -11.689513 -16.830994 3.659036 1.163845 -0.098946 7.155579 9.368968 0.000000 0.000000 0.000000 16.898670 -7.227481 5.113850 4.380202 7.346247 -7.220644 13.986547 -19.215273 39.010591 27.153439 -28.275506 -2.354562 0.000000 0.000000 0.000000 3.018918 4.098767 8.094150 -10.857358 0.677944 -20.024827 3.942765 0.804398 -5.374211 6.458140 -2.810487 -11.283568 -2.969091 -0.608725 9.980032 0.000000 0.000000 0.000000 -12.509717 8.311881 15.637221 -53.713619 5.701492 -8.723323 13.826963 -55.233114 -0.165017 0.203783 2.521571 -0.082562 0.205706 2.523261 -0.000000 0.000000 0.000000 0.000000 0.000000 0.000000 0.000000 10.060349 -4.026499 11.838254 65.691245 13.569206 -10.387360 -13.246289 57.171473 0.059150 0.779178 -0.826148 0.029770 0.783402 -0.824633 0.000000 0.000000 0.000000 0.000000 0.000000 0.000000 0.000000 
-1.666940 16.877377 24.339221 2.030364 8.770673 8.258234 -17.141379 -0.527442 -9.401626 -6.938232 -2.428408 -11.485155 -17.488440 4.015150 1.867676 -0.114630 6.852068 8.497829 0.000000 0.000000 0.000000 17.417656 -7.093782 5.430799 3.673515 7.212758 -7.488579 13.474937 -19.103118 39.239101 28.236291 -30.309926 -1.255039 0.000000 0.000000 0.000000 2.604057 3.991458 7.897026 -10.885225 0.547287 -19.936564 3.973508 0.630093 -5.337277 6.560933 -2.805231 -11.447303 -2.923706 -0.604152 10.088009 0.000000 0.000000 0.000000 -12.549280 8.126176 15.700401 -54.046658 5.640650 -9.003299 14.707873 -55.603593 -0.165135 0.172950 2.501456 -0.082623 0.174883 2.503181 -0.000000 0.000000 0.000000 0.000000 0.000000 0.000000 0.000000 9.980321 -4.024665 12.223644 66.496991 13.685610 -11.056726 -13.792038 56.992256 0.061860 0.833254 -0.799603 0.031115 0.837355 -0.798080 0.000000 0.000000 0.000000 0.000000 0.000000 0.000000 0.000000 
-1.681053 16.904360 24.523242 2.352761 8.804651 8.452967 -16.882722 -0.352308 -9.270569 -7.090768 -2.417676 -11.369867 -18.181541 4.251456 2.390205 -0.105242 6.591443 7.839423 0.000000 0.000000 0.000000 18.090464 -6.930963 5.777479 2.811568 7.044029 -7.891251 13.002879 -19.038113 39.433484 29.277541 -32.341719 -0.234393 0.000000 0.000000 0.000000 2.072850 3.834704 7.620787 -10.790964 0.416682 -19.796060 4.030771 0.442270 -5.316670 6.660798 -2.784936 -11.612355 -2.862489 -0.597689 10.197971 0.000000 0.000000 0.000000 -12.512081 7.982736 15.787331 -54.503603 5.570037 -9.302586 15.618200 -56.046166 -0.164742 0.153385 2.458626 -0.082428 0.155345 2.460385 -0.000000 0.000000 0.000000 0.000000 0.000000 0.000000 0.000000 9.847522 -4.115641 12.605668 67.352711 13.762938 -11.732885 -14.363712 56.929667 0.065162 0.887427 -0.773118 0.032758 0.891422 -0.771579 0.000000 0.000000 0.000000 0.000000 0.000000 0.000000 0.000000 
-1.696543 16.932028 24.702189 2.653691 8.838566 8.650696 -16.632651 -0.166088 -9.152520 -7.251993 -2.455152 -11.320918 -18.759594 4.515896 3.025324 -0.096125 6.323751 7.241943 0.000000 0.000000 0.000000 18.833871 -6.711855 6.109862 1.895333 6.813113 -8.315451 12.527642 -19.000157 39.626075 30.252595 -34.399445 0.777592 0.000000 0.000000 0.000000 1.457555 3.638997 7.353952 -10.498007 0.314072 -19.560404 4.045223 0.270740 -5.339751 6.749421 -2.736133 -11.763036 -2.761335 -0.587235 10.281781 0.000000 0.000000 0.000000 -12.421859 7.924641 15.933156 -55.120348 5.505531 -9.534129 16.312645 -56.466799 -0.161408 0.149818 2.382933 -0.080761 0.151773 2.384673 -0.000000 0.000000 0.000000 0.000000 0.000000 0.000000 0.000000 9.632054 -4.336076 12.960359 68.237778 13.794017 -12.350719 -14.855891 56.999344 0.068977 0.934919 -0.748463 0.034657 0.938838 -0.746901 0.000000 0.000000 0.000000 0.000000 0.000000 0.000000 0.000000 
-1.714025 16.960150 24.876149 2.932164 8.873471 8.850520 -16.385435 0.031408 -9.054031 -7.432061 -2.540312 -11.333357 -19.209181 4.808939 3.779496 -0.087939 6.041370 6.686869 0.000000 0.000000 0.000000 19.642108 -6.436352 6.427391 0.936320 6.518572 -8.755605 12.047236 -18.990190 39.819283 31.150576 -36.470662 1.786720 0.000000 0.000000 0.000000 0.755761 3.402512 7.101453 -9.997729 0.237858 -19.224843 4.016486 0.115305 -5.409146 6.824379 -2.657596 -11.898816 -2.617748 -0.572795 10.337660 0.000000 0.000000 0.000000 -12.273038 7.957741 16.142849 -55.907639 5.447395 -9.680970 16.766214 -56.862629 -0.154495 0.164109 2.266549 -0.077302 0.166013 2.268208 -0.000000 0.000000 0.000000 0.000000 0.000000 0.000000 0.000000 9.330382 -4.696388 13.283908 69.149369 13.772543 -12.906250 -15.267644 57.196248 0.073457 0.975325 -0.723948 0.036891 0.979207 -0.722355 0.000000 0.000000 0.000000 0.000000 0.000000 0.000000 0.000000 
-1.726209 16.992018 25.044635 3.154177 8.875824 9.083185 -16.350603 0.135105 -8.950064 -7.351146 -2.673711 -11.573923 -19.504070 5.237876 4.825133 -0.096666 5.715585 6.024571 0.000000 0.000000 0.000000 20.428785 -6.155519 6.705962 0.022225 6.215863 -9.188426 11.595811 -18.948340 39.980128 31.938894 -38.543852 2.828509 0.000000 0.000000 0.000000 0.223374 3.200814 6.887325 -9.669463 0.152375 -18.918239 4.077549 -0.029404 -5.635324 6.935516 -2.631953 -12.005635 -2.578334 -0.565870 10.443245 0.000000 0.000000 0.000000 -12.131597 8.147388 16.320847 -56.584593 5.409802 -9.679543 16.858645 -56.833070 -0.144100 0.162154 2.159312 -0.072098 0.163894 2.160816 -0.000000 0.000000 0.000000 0.000000 0.000000 0.000000 0.000000 9.085161 -5.129146 13.518685 69.974256 13.748834 -13.131325 -15.315269 57.502928 0.080615 1.009403 -0.712539 0.040474 1.013461 -0.710854 0.000000 0.000000 0.000000 0.000000 0.000000 0.000000 0.000000 
-1.730753 17.027926 25.207914 3.280300 8.810697 9.309413 -16.539108 0.154077 -8.810724 -6.969465 -2.846031 -12.054989 -19.615423 5.812209 6.170353 -0.121432 5.345535 5.232083 0.000000 0.000000 0.000000 21.066788 -5.912862 6.872439 -0.631777 5.926869 -9.461273 11.143871 -18.765313 40.101213 32.648670 -40.630091 3.867752 0.000000 0.000000 0.000000 -0.050358 3.052672 6.736613 -9.547113 0.066996 -18.626568 4.218149 -0.144729 -6.041619 7.082630 -2.663418 -12.083408 -2.650119 -0.567231 10.608276 0.000000 0.000000 0.000000 -11.998419 8.517138 16.459159 -57.140949 5.399471 -9.518169 16.560001 -56.323203 -0.130304 0.136745 2.070127 -0.065190 0.138201 2.071406 -0.000000 0.000000 0.000000 0.000000 0.000000 0.000000 0.000000 8.894514 -5.639899 13.658150 70.703873 13.703361 -12.992417 -14.911902 57.947023 0.090610 1.035796 -0.718948 0.045486 1.040255 -0.717107 0.000000 0.000000 0.000000 0.000000 0.000000 0.000000 0.000000 
-1.728000 17.060449 25.368243 3.364494 8.696561 9.530457 -16.838625 0.135907 -8.644331 -6.464772 -3.013388 -12.609995 -19.645972 6.417724 7.557426 -0.157717 4.957130 4.341289 0.000000 0.000000 0.000000 21.521705 -5.752274 6.971802 -1.059360 5.710815 -9.604065 10.751716 -18.457097 40.195710 33.359714 -42.630685 4.720062 0.000000 0.000000 0.000000 -0.086101 2.937563 6.635829 -9.644834 -0.037734 -18.411809 4.427477 -0.262330 -6.491574 7.346250 -2.791190 -12.189663 -2.876459 -0.578886 10.810235 0.000000 0.000000 0.000000 -11.848879 9.001476 16.435704 -57.560250 5.350159 -9.423160 16.577334 -55.323570 -0.116027 0.060115 2.000650 -0.058040 0.061271 2.001713 -0.000000 0.000000 0.000000 0.000000 0.000000 0.000000 0.000000 8.643607 -6.070616 13.798356 71.471552 13.548507 -12.513471 -13.979797 58.631998 0.103765 1.051597 -0.741003 0.052088 1.056679 -0.738954 0.000000 0.000000 0.000000 0.000000 0.000000 0.000000 0.000000 
-1.725508 17.089256 25.525700 3.442385 8.620998 9.781044 -17.186824 0.076951 -8.506635 -5.937020 -3.198602 -13.210965 -19.577488 7.040545 9.035229 -0.195204 4.533472 3.409731 0.000000 0.000000 0.000000 21.943096 -5.612595 7.055770 -1.454338 5.526009 -9.736023 10.473098 -18.120435 40.249287 34.111987 -44.544767 5.339349 0.000000 0.000000 0.000000 -0.038853 2.828730 6.601118 -9.986282 -0.184804 -18.254815 4.783352 -0.409473 -7.050996 7.644135 -3.019314 -12.329426 -3.243946 -0.603988 11.063359 0.000000 0.000000 0.000000 -11.601771 9.603038 16.236422 -57.841054 5.224738 -9.382299 16.938546 -53.814999 -0.102593 -0.065667 1.955225 -0.051315 -0.064782 1.956103 -0.000000 0.000000 0.000000 0.000000 0.000000 0.000000 0.000000 8.399670 -6.465512 13.873144 72.227318 13.227302 -11.579707 -12.422665 59.551387 0.120893 1.055596 -0.780512 0.060691 1.061588 -0.778201 0.000000 0.000000 0.000000 0.000000 0.000000 0.000000 0.000000 
